<svg xmlns="http://www.w3.org/2000/svg" viewBox="0 0 512 512">
  <defs>
    <linearGradient id="bg" x1="0" y1="0" x2="1" y2="1">
      <stop offset="0%" stop-color="#05060d"/>
      <stop offset="45%" stop-color="#0b1740"/>
      <stop offset="100%" stop-color="#2a0730"/>
    </linearGradient>

    <linearGradient id="akaza" x1="0" y1="0" x2="1" y2="1">
      <stop offset="0%" stop-color="#00eaff"/>
      <stop offset="45%" stop-color="#1f6fff"/>
      <stop offset="100%" stop-color="#ff4da6"/>
    </linearGradient>

    <filter id="glow">
      <feGaussianBlur stdDeviation="7" result="blur"/>
      <feMerge>
        <feMergeNode in="blur"/>
        <feMergeNode in="SourceGraphic"/>
      </feMerge>
    </filter>
  </defs>

  <rect width="512" height="512" rx="108" fill="url(#bg)"/>

  <circle cx="256" cy="256" r="184" fill="none" stroke="url(#akaza)" stroke-width="16" opacity="0.95" filter="url(#glow)"/>
  <circle cx="256" cy="256" r="132" fill="none" stroke="#00eaff" stroke-width="6" opacity="0.55"/>
  <circle cx="256" cy="256" r="88" fill="none" stroke="#ff4da6" stroke-width="6" opacity="0.55"/>

  <path d="M256 83 C281 136 319 165 379 181 C327 208 294 246 281 307 C254 256 218 222 158 204 C211 179 241 139 256 83Z"
        fill="url(#akaza)" opacity="0.95" filter="url(#glow)"/>

  <path d="M256 145 L292 235 H258 L314 370 L219 255 H253 L198 145Z"
        fill="#eaf8ff" opacity="0.96"/>

  <path d="M116 256 H396 M256 116 V396"
        stroke="url(#akaza)" stroke-width="8" stroke-linecap="round" opacity="0.75"/>

  <text x="256" y="454"
        text-anchor="middle"
        font-size="44"
        font-family="Arial, sans-serif"
        font-weight="900"
        fill="#eaf8ff"
        letter-spacing="4">
    ATS
  </text>
</svg>
